<svg xmlns="http://www.w3.org/2000/svg" viewBox="0 0 900 500"><defs><linearGradient id="bg" x1="0" x2="1" y1="0" y2="1"><stop stop-color="#dcecff"/><stop offset="1" stop-color="#b9d7f7"/></linearGradient><linearGradient id="pod" x1="0" x2="0" y1="0" y2="1"><stop stop-color="#fff"/><stop offset="1" stop-color="#c8ddf4"/></linearGradient></defs><rect width="900" height="500" fill="url(#bg)"/><path d="M620 0h280v500H530c90-110 120-260 90-350z" fill="#b8d5f4"/><path d="M720 0h180v500H760c20-170 5-320-40-500z" fill="#91bce9" opacity=".45"/><g fill="#9bc3ed" opacity=".45"><circle cx="840" cy="70" r="3"/><circle cx="860" cy="70" r="3"/><circle cx="840" cy="90" r="3"/><circle cx="860" cy="90" r="3"/></g><ellipse cx="270" cy="430" rx="210" ry="38" fill="url(#pod)"/><ellipse cx="560" cy="430" rx="230" ry="45" fill="url(#pod)"/><ellipse cx="790" cy="420" rx="170" ry="38" fill="url(#pod)"/><!-- headphones --><g transform="translate(105 145) rotate(-8)"><path d="M15 165C-10 60 55 0 135 15c75 14 100 80 72 150" fill="none" stroke="#111a25" stroke-width="34" stroke-linecap="round"/><rect x="0" y="130" width="60" height="105" rx="27" fill="#101923"/><rect x="195" y="130" width="60" height="105" rx="27" fill="#101923"/><rect x="12" y="145" width="35" height="75" rx="16" fill="#2d3743"/><rect x="208" y="145" width="35" height="75" rx="16" fill="#2d3743"/></g><!-- speaker --><g transform="translate(390 55)"><rect x="0" y="0" width="135" height="310" rx="54" fill="#142537"/><rect x="13" y="18" width="109" height="274" rx="45" fill="#1d3448"/><path d="M62 22h12v12H62z" fill="#fff" opacity=".6"/><text x="67" y="160" text-anchor="middle" fill="#b7c7d8" font-size="12" font-family="Arial" transform="rotate(-90 67 160)">PORTABLE</text></g><!-- watch --><g transform="translate(335 275)"><rect x="45" y="-35" width="48" height="190" rx="22" fill="#171d26"/><rect x="0" y="0" width="140" height="105" rx="25" fill="#111923"/><rect x="10" y="10" width="120" height="85" rx="18" fill="#050b12"/><text x="70" y="52" text-anchor="middle" fill="#4ed2ff" font-size="30" font-family="Arial">10</text><text x="70" y="78" text-anchor="middle" fill="#fff" font-size="14" font-family="Arial">09</text></g><!-- camera --><g transform="translate(520 250)"><ellipse cx="65" cy="70" rx="62" ry="58" fill="#f4f7fa"/><circle cx="65" cy="62" r="34" fill="#111b25"/><circle cx="65" cy="62" r="20" fill="#26394c"/><circle cx="58" cy="55" r="6" fill="#fff" opacity=".7"/><rect x="38" y="112" width="54" height="18" rx="9" fill="#d6e1eb"/></g><!-- water container --><g transform="translate(665 105)"><path d="M18 38h150l22 280c2 25-15 45-40 45H42c-25 0-42-20-40-45z" fill="#bde7ff" opacity=".9"/><rect x="52" y="0" width="90" height="55" rx="18" fill="#dff5ff"/><path d="M48 38h98" stroke="#7fc8f1" stroke-width="8"/><text x="95" y="190" text-anchor="middle" fill="#1381dc" font-size="56" font-weight="700" font-family="Arial">5L</text><text x="95" y="220" text-anchor="middle" fill="#1381dc" font-size="14" font-family="Arial">WATER CONTAINER</text><path d="M25 250c45-30 80 20 145-10v65H25z" fill="#65bdf0" opacity=".6"/></g><!-- leaf --><path d="M850 80c-70 20-70 120 0 130 15-50 20-95 0-130z" fill="#5d9c42"/><path d="M855 110c35-30 65-20 45 15-12 20-30 35-50 40" fill="#4d8736"/></svg>